<?xml version="1.0" encoding="utf-8"?>
<!-- Generator: Adobe Illustrator 19.0.0, SVG Export Plug-In . SVG Version: 6.00 Build 0)  -->
<svg version="1.1" id="Capa_1" xmlns="http://www.w3.org/2000/svg" xmlns:xlink="http://www.w3.org/1999/xlink" x="0px" y="0px"
	 viewBox="0 0 32.5 303.5" style="enable-background:new 0 0 32.5 303.5;" xml:space="preserve">
<style type="text/css">
	.st0{fill:#717175;}
	.st1{font-family:'Arial-BoldMT';}
	.st2{font-size:19.1961px;}
	.st3{fill-rule:evenodd;clip-rule:evenodd;fill:#717175;}
</style>
<text id="XMLID_13_" transform="matrix(1.0448 0 0 1 11.2238 182.7526)" class="st0 st1 st2">$</text>
<text id="XMLID_12_" transform="matrix(1.0448 0 0 1 9.6208 236.7525)" class="st0 st1 st2">X</text>
<path id="XMLID_15_" class="st3" d="M6.5,14.7C6.5,9.2,11,4.6,16.6,4.6c5.5,0,10.1,4.6,10.1,10.1c0,5.6-4.6,10.2-10.1,10.2
	C11,24.9,6.5,20.3,6.5,14.7z M15.8,23.5c3.5,0,6.2-1.3,7.7-3.4c0.1-0.2,0.3-0.5,0.2-0.6c-0.3-0.9-0.5-1.8-1-2.6
	c-0.3-0.5-0.9-0.8-1.4-1.2c-0.4-0.3-0.7-0.2-1.1,0.2c-2,1.9-5,1.9-7.1,0.1c-0.6-0.5-0.9-0.6-1.6-0.1c-0.4,0.3-0.8,0.7-1.1,1.1
	c-0.4,0.7-0.6,1.5-0.8,2.3c-0.1,0.3,0,0.7,0.2,0.9C11.5,22.3,13.8,23.4,15.8,23.5z M21,11.9c0-2.4-1.9-4.4-4.4-4.4
	c-2.5,0-4.4,1.9-4.4,4.3c0,2.4,1.9,4.4,4.4,4.4C19,16.2,21,14.3,21,11.9z"/>
<g id="XMLID_16_">
	<g id="XMLID_57_">
		<path id="XMLID_59_" class="st3" d="M24.6,63.7c0.5,0.5,1,1,1.4,1.5c0.6,0.7,0.5,1.5-0.2,2.2c-1.9,1.9-3.9,3.9-5.8,5.8
			c-1.5,1.5-3,3-4.4,4.5c-0.9,0.9-1.6,0.9-2.5,0c-0.4-0.4-0.8-0.8-1.3-1.2c0.6-0.6,0.8-1.3,0.6-2.1c-0.1-0.5-0.4-0.9-0.7-1.3
			c-0.8-0.8-2-0.8-3.1,0c-0.5-0.5-1-1-1.5-1.5c-0.5-0.5-0.5-1.3,0-1.8c0.1-0.1,0.3-0.3,0.4-0.4c3.4-3.4,6.7-6.7,10.1-10.1
			c0.9-0.9,1.6-0.9,2.6,0c0.4,0.4,0.8,0.7,1.2,1.1c-0.9,1.4-0.9,2.5,0,3.3C22.2,64.5,23.4,64.5,24.6,63.7z M18.1,61.9
			c-0.2,0.1-0.5,0.2-0.6,0.4c-2.4,2.3-4.7,4.7-7.1,7.1c-0.4,0.4-0.4,0.8,0,1.2c1.3,1.4,2.7,2.7,4.1,4.1c0.5,0.5,0.8,0.4,1.3,0
			c2.3-2.3,4.7-4.7,7-7c0.5-0.5,0.5-0.8,0-1.3c-1.3-1.3-2.7-2.7-4-4C18.6,62.1,18.3,62,18.1,61.9z"/>
		<path id="XMLID_58_" class="st3" d="M18.1,63.5c1.1,1.1,2.3,2.3,3.4,3.4c-2.2,2.2-4.4,4.4-6.5,6.5c-1.1-1.1-2.3-2.3-3.4-3.4
			C13.8,67.8,16,65.7,18.1,63.5z"/>
	</g>
</g>
<path id="XMLID_5_" class="st3" d="M11.9,126.6c0.2-1.3,0.4-2.6,0.7-3.9c0.1-0.5,0-0.8-0.4-1.1c-0.9-0.8-1.8-1.7-2.7-2.6
	c-0.2-0.2-0.2-0.5-0.3-0.7c0.2-0.1,0.4-0.3,0.7-0.3c1.3-0.2,2.7-0.4,4-0.6c0.2,0,0.4-0.2,0.5-0.4c0.6-1.2,1.2-2.4,1.8-3.6
	c0.1-0.2,0.3-0.3,0.5-0.5c0.2,0.2,0.4,0.3,0.5,0.5c0.6,1.2,1.2,2.4,1.8,3.6c0.1,0.3,0.3,0.4,0.6,0.4c1.3,0.2,2.7,0.4,4,0.6
	c0.2,0,0.5,0.2,0.6,0.3c0.1,0.1-0.1,0.4-0.3,0.6c-0.9,0.9-1.9,1.9-2.9,2.8c-0.3,0.2-0.3,0.5-0.3,0.8c0.2,1.2,0.4,2.5,0.6,3.7
	c0,0.1,0,0.3,0.1,0.4c0,0.6-0.2,0.7-0.7,0.5c-1.2-0.6-2.3-1.2-3.5-1.8c-0.4-0.2-0.7-0.2-1.1,0c-1.1,0.6-2.3,1.2-3.5,1.8
	C12.1,127.3,11.8,127.1,11.9,126.6z"/>
<path id="XMLID_17_" class="st3" d="M16.7,281.5c0.5-0.7,1-1.3,1.5-1.9c0.9-1.2,2.1-1.6,3.4-1.2c1.1,0.4,2,1.4,2,2.6
	c0.1,1.4-0.6,2.5-2,3.1c-0.1,0-0.1,0.1-0.2,0.2c1.5,0,3,0,4.5,0c1,0,1,0,1,1c0,1,0,2.1,0,3.1c0,0.9,0,1-1,1c-0.2,0-0.4,0-0.8,0
	c0,0.3,0,0.5,0,0.8c0,1.5,0,3.1,0,4.6c0,1-0.5,1.5-1.5,1.5c-4.7,0-9.4,0-14.1,0c-1,0-1.5-0.5-1.5-1.5c0-1.7,0-3.5,0-5.3
	c-0.4,0-0.7,0-1.1,0c-0.4,0-0.6-0.2-0.6-0.6c0-1.3,0-2.7,0-4c0-0.5,0.3-0.6,0.7-0.6c1.4,0,2.8,0,4.2,0c0.2,0,0.4,0,0.6,0
	c-1.4-0.6-2.2-1.6-2.2-3.2c0.1-1.2,0.9-2.3,2-2.6c1.2-0.4,2.4-0.1,3.2,0.9C15.5,279.9,16,280.6,16.7,281.5z M14.6,284.2
	c0,0.1-0.1,0.1-0.1,0.2c0,3.1,0,6.2,0,9.3c0,0.6,0.3,0.8,0.9,0.8c0.8,0,1.6,0,2.4,0c0.9,0,1-0.2,1-1.1c0-1.9,0-3.7,0-5.6
	c0-1,0-2,0-3c0-0.2,0-0.4,0-0.6C17.4,284.2,16,284.2,14.6,284.2z M18,282.5c1.1,0,1.9,0,2.8,0c0.6,0,1-0.4,1.2-1
	c0.2-0.6-0.1-1.1-0.7-1.4c-0.5-0.3-1.1-0.3-1.5,0.2C19.2,280.9,18.6,281.7,18,282.5z M15.3,282.5c-0.7-0.8-1.2-1.5-1.8-2.2
	c-0.4-0.5-1-0.5-1.5-0.2c-0.5,0.3-0.8,0.8-0.7,1.4c0.1,0.6,0.5,1,1.1,1.1C13.4,282.5,14.3,282.5,15.3,282.5z"/>
</svg>
